<svg xmlns="http://www.w3.org/2000/svg" viewBox="0 0 1024 1024" role="img" aria-labelledby="title desc">
  <title id="title">ExpiryCue app icon master</title>
  <desc id="desc">A rounded green tile with a cream calendar card and an amber produce mark to communicate food expiry tracking.</desc>
  <rect width="1024" height="1024" rx="240" fill="#F4EFE6"/>
  <rect x="92" y="92" width="840" height="840" rx="210" fill="#2F725B"/>
  <rect x="242" y="250" width="540" height="524" rx="130" fill="#F4EFE6"/>
  <rect x="242" y="250" width="540" height="130" rx="130" fill="#E39442"/>
  <rect x="322" y="210" width="56" height="118" rx="28" fill="#F4EFE6"/>
  <rect x="646" y="210" width="56" height="118" rx="28" fill="#F4EFE6"/>
  <path d="M503 434 C457 434 421 470 421 514 C421 589 503 638 503 638 C503 638 585 589 585 514 C585 470 549 434 503 434 Z" fill="#E39442"/>
  <ellipse cx="553" cy="418" rx="36" ry="18" transform="rotate(-32 553 418)" fill="#2F725B"/>
  <rect x="340" y="684" width="344" height="28" rx="14" fill="#2F725B" opacity="0.16"/>
</svg>
